<svg width="128" height="32" viewBox="0 0 128 32" fill="none" xmlns="http://www.w3.org/2000/svg">
<g clip-path="url(#clip0_39_1445)">
<path d="M32.1182 32C31.7942 32 31.5143 31.8815 31.2787 31.6445C31.0431 31.4074 30.9252 31.126 30.9252 30.8V2.08892C30.9252 1.76299 31.0431 1.48151 31.2787 1.24447C31.5143 1.00743 31.7942 0.888916 32.1182 0.888916H41.1317C41.4557 0.888916 41.7355 1.00743 41.9711 1.24447C42.2068 1.48151 42.3246 1.76299 42.3246 2.08892V30.8C42.3246 31.126 42.2068 31.4074 41.9711 31.6445C41.7355 31.8815 41.4557 32 41.1317 32H32.1182Z" fill="#232321" style="fill:#232321;fill:color(display-p3 0.1373 0.1373 0.1294);fill-opacity:1;"/>
<path d="M1.19296 31.5556C0.868945 31.5556 0.589115 31.437 0.353469 31.2C0.117823 30.963 0 30.6815 0 30.3556V1.64446C0 1.31853 0.117823 1.03705 0.353469 0.800014C0.589115 0.562977 0.868945 0.444458 1.19296 0.444458H9.63203C9.95605 0.444458 10.2359 0.562977 10.4715 0.800014C10.7072 1.03705 10.825 1.31853 10.825 1.64446V10.4445L15.8177 1.42224C15.965 1.1852 16.1761 0.962977 16.4609 0.755569C16.7407 0.548162 17.1138 0.444458 17.5851 0.444458H27.3497C27.6148 0.444458 27.8406 0.543223 28.037 0.730878C28.2284 0.92347 28.3217 1.15063 28.3217 1.42224C28.3217 1.60001 28.2775 1.76298 28.1892 1.91112L20.2361 15.3333L28.9403 30.0889C29.0286 30.2074 29.0728 30.3704 29.0728 30.5778C29.0728 30.8445 28.9746 31.0766 28.7881 31.2691C28.5966 31.4617 28.3708 31.5556 28.1008 31.5556H18.0269C17.4378 31.5556 17.0009 31.4173 16.726 31.1309C16.4461 30.8494 16.2743 30.6519 16.2154 30.5333L10.825 20.8445V30.3556C10.825 30.6815 10.7072 30.963 10.4715 31.2C10.2359 31.437 9.95605 31.5556 9.63203 31.5556H1.19296Z" fill="#232321" style="fill:#232321;fill:color(display-p3 0.1373 0.1373 0.1294);fill-opacity:1;"/>
<path d="M58.8231 32C55.9954 32 53.4917 31.5852 51.3119 30.7556C49.1322 29.9259 47.3992 28.6222 46.1179 26.8444C44.8366 25.0667 44.1345 22.7704 44.0216 19.9556C43.9922 18.7407 43.9774 17.437 43.9774 16.0444C43.9774 14.6519 43.9922 13.3185 44.0216 12.0444C44.1395 9.28889 44.8513 7.02222 46.1621 5.24444C47.4729 3.46667 49.2255 2.14815 51.4199 1.28889C53.6144 0.42963 56.0838 0 58.8231 0C60.7083 0 62.5248 0.217284 64.2823 0.641975C66.0349 1.0716 67.6157 1.74815 69.0296 2.66667C70.4434 3.58519 71.5677 4.76543 72.4072 6.19753C73.2467 7.63457 73.6787 9.36296 73.713 11.3778C73.713 11.6444 73.6148 11.8765 73.4283 12.0691C73.2368 12.2617 73.011 12.3556 72.741 12.3556H63.7275C63.2562 12.3556 62.9077 12.2617 62.6868 12.0691C62.4658 11.8765 62.2695 11.5457 62.0927 11.0667C61.7687 10.1185 61.3269 9.48148 60.7672 9.15556C60.2076 8.82963 59.5448 8.66667 58.779 8.66667C57.8069 8.66667 57.0313 8.92839 56.4569 9.44691C55.8825 9.96543 55.5634 10.9086 55.5045 12.2667C55.4161 14.6963 55.4161 17.1852 55.5045 19.7333C55.5634 21.0963 55.8825 22.0395 56.4569 22.5531C57.0313 23.0716 57.8069 23.3333 58.779 23.3333C59.5448 23.3333 60.2125 23.1556 60.7869 22.8C61.3613 22.4444 61.7933 21.8222 62.0927 20.9333C62.24 20.4296 62.4315 20.0889 62.6671 19.9111C62.9028 19.7333 63.2562 19.6444 63.7275 19.6444H72.741C73.0061 19.6444 73.2319 19.7432 73.4283 19.9309C73.6198 20.1235 73.713 20.3506 73.713 20.6222C73.6836 22.637 73.2516 24.3654 72.4072 25.8025C71.5677 27.2395 70.4434 28.4198 69.0296 29.3333C67.6157 30.2519 66.03 30.9284 64.2823 31.3531C62.5248 31.7827 60.7083 32 58.8231 32Z" fill="#232321" style="fill:#232321;fill:color(display-p3 0.1373 0.1373 0.1294);fill-opacity:1;"/>
<path d="M99.8157 30.0889L91.1116 15.3333L99.0646 1.91112C99.153 1.76298 99.1972 1.60001 99.1972 1.42224C99.1972 1.15557 99.1039 0.928409 98.9124 0.735816C98.721 0.543223 98.4902 0.444458 98.2251 0.444458H88.4605C87.9893 0.444458 87.6161 0.548162 87.3363 0.755569C87.0565 0.962977 86.8405 1.1852 86.6932 1.42224L82.2748 9.40742L81.7004 10.4445V1.64446C81.7004 1.31853 81.5826 1.03705 81.347 0.800014C81.1113 0.562977 80.8315 0.444458 80.5075 0.444458H72.0684C71.7444 0.444458 71.4646 0.562977 71.2289 0.800014C71.1995 0.834581 71.17 0.864211 71.1406 0.898779C71.1111 0.933347 71.0866 0.967915 71.0669 1.00248C71.0424 1.03705 71.0227 1.07656 71.0031 1.11112C70.9835 1.15063 70.9687 1.1852 70.954 1.2247C72.4759 2.27656 73.7228 3.60989 74.6507 5.20001C75.6571 6.92841 76.1873 8.99754 76.2217 11.3482C76.2217 12.163 75.9173 12.9037 75.3626 13.4667C74.8029 14.0247 74.0665 14.3309 73.2859 14.3309H70.8755V17.6691H73.2859C74.0665 17.6691 74.8029 17.9753 75.3576 18.5333C75.9173 19.1012 76.2217 19.842 76.2217 20.6222C76.1873 23.0025 75.6571 25.0716 74.6507 26.8C73.7228 28.3901 72.4759 29.7235 70.954 30.7753C70.9687 30.8148 70.9835 30.8543 71.0031 30.8889C71.0424 30.963 71.0866 31.037 71.1406 31.1012C71.17 31.1358 71.1995 31.1654 71.2289 31.2C71.4646 31.437 71.7444 31.5556 72.0684 31.5556H80.5075C80.8315 31.5556 81.1113 31.437 81.347 31.2C81.5826 30.963 81.7004 30.6815 81.7004 30.3556V20.8445L82.2748 21.8766L87.0909 30.5333C87.1498 30.6519 87.3216 30.8543 87.6014 31.1358C87.8813 31.4173 88.3133 31.5556 88.9024 31.5556H98.9762C99.2414 31.5556 99.4721 31.4617 99.6635 31.2691C99.855 31.0766 99.9483 30.8445 99.9483 30.5778C99.9483 30.3704 99.9041 30.2074 99.8157 30.0889Z" fill="#232321" style="fill:#232321;fill:color(display-p3 0.1373 0.1373 0.1294);fill-opacity:1;"/>
<path d="M113.331 32C110.061 32 107.366 31.5556 105.245 30.6667C103.125 29.7778 101.534 28.6074 100.474 27.1556C99.4132 25.7037 98.8535 24.163 98.7946 22.5333C98.7946 22.2667 98.8879 22.0395 99.0793 21.842C99.2708 21.6494 99.4966 21.5556 99.7617 21.5556H108.157C108.628 21.5556 108.986 21.6198 109.242 21.7531C109.492 21.8864 109.762 22.0741 110.061 22.3062C110.356 22.5136 110.655 22.7012 110.965 22.8593C111.274 23.0222 111.627 23.1407 112.025 23.2148C112.423 23.2889 112.855 23.3284 113.331 23.3284C114.333 23.3284 115.133 23.2148 115.737 22.9926C116.34 22.7704 116.645 22.4691 116.645 22.084C116.645 21.7284 116.473 21.4321 116.134 21.1951C115.795 20.958 115.211 20.7457 114.387 20.5531C113.562 20.3605 112.413 20.1728 110.94 20C108.613 19.6741 106.595 19.1259 104.887 18.3556C103.179 17.5852 101.858 16.5284 100.935 15.1753C100.007 13.8272 99.5457 12.1728 99.5457 10.2173C99.5457 8.20247 100.11 6.42469 101.244 4.88395C102.378 3.34321 103.954 2.14321 105.972 1.28395C107.99 0.42963 110.341 0 113.022 0C115.231 0 117.19 0.28642 118.898 0.864197C120.607 1.44198 122.05 2.19753 123.228 3.13086C124.406 4.0642 125.305 5.06667 125.923 6.13333C126.542 7.2 126.866 8.22222 126.895 9.2C126.895 9.46667 126.797 9.69876 126.611 9.89136C126.419 10.084 126.203 10.1778 125.968 10.1778H117.131C116.718 10.1778 116.385 10.1185 116.139 10C115.889 9.88148 115.629 9.7037 115.363 9.46667C115.216 9.31852 114.941 9.15062 114.544 8.95309C114.146 8.76049 113.64 8.66667 113.017 8.66667C112.28 8.66667 111.74 8.78025 111.407 9.00247C111.068 9.22469 110.896 9.53086 110.896 9.91111C110.896 10.1778 111.029 10.4296 111.294 10.6667C111.559 10.9037 112.045 11.1111 112.752 11.2889C113.459 11.4667 114.475 11.6444 115.8 11.8222C118.746 12.1778 121.107 12.7506 122.894 13.5309C124.676 14.316 125.972 15.363 126.782 16.6667C127.593 17.9704 128 19.5852 128 21.5111C128 23.6741 127.357 25.5407 126.076 27.1111C124.794 28.6815 123.046 29.8864 120.837 30.7309C118.628 31.5753 116.129 32 113.331 32Z" fill="#232321" style="fill:#232321;fill:color(display-p3 0.1373 0.1373 0.1294);fill-opacity:1;"/>
</g>
<defs>
<clipPath id="clip0_39_1445">
<rect width="128" height="32" fill="white" style="fill:white;fill-opacity:1;"/>
</clipPath>
</defs>
</svg>
