<svg viewBox="-.16 0 14.291 12.25" xmlns="http://www.w3.org/2000/svg"><path fill="#ECEEF0" d="M4.15-21.22q-.55.02-.93.38v0q-.36.38-.39.92 .02.54.38.92 .38.35.92.38 .54-.03.92-.39 .35-.39.38-.93 -.03-.55-.39-.93 -.39-.36-.93-.39Zm8.06-2.41H1.7q-.72.02-1.21.51 -.5.49-.52 1.23v8.75q.02.73.51 1.23 .49.49 1.2.51h10.5q.73-.03 1.23-.52 .49-.5.51-1.24v-8.75q-.03-.74-.5-1.24 -.5-.5-1.26-.52Zm.43 10.3l-3.75-5.09q-.11-.2-.39-.2t-.42.19L5.15-14.5l-1.02-1.26q-.14-.17-.42-.17 -.25 0-.39.16L1.24-13.2q0 0 0 0t0 0v-8.73q.02-.42.43-.44h10.5q.41.02.43.43v8.55Z" transform="translate(0 23.625)"/></svg>